<mxfile host="65bd71144e">
    <diagram name="vLLM推理框架架构" id="vllm-architecture">
        <mxGraphModel dx="1523" dy="1443" grid="1" gridSize="10" guides="0" tooltips="1" connect="1" arrows="1" fold="1" page="1" pageScale="1" pageWidth="1169" pageHeight="500" background="none" math="0" shadow="0">
            <root>
                <mxCell id="0"/>
                <mxCell id="1" parent="0"/>
                <mxCell id="input-layer" value="多模态输入层" style="rounded=1;whiteSpace=wrap;html=1;fillColor=#dae8fc;strokeColor=#6c8ebf;fontSize=14;fontStyle=1;" parent="1" vertex="1">
                    <mxGeometry x="50" y="110" width="200" height="60" as="geometry"/>
                </mxCell>
                <mxCell id="image-input" value="图像输入&#10;(仪表图片)" style="rounded=1;whiteSpace=wrap;html=1;fillColor=#e1d5e7;strokeColor=#9673a6;" parent="1" vertex="1">
                    <mxGeometry x="50" y="230" width="90" height="50" as="geometry"/>
                </mxCell>
                <mxCell id="text-input" value="文本输入&#10;(识别结果+提示)" style="rounded=1;whiteSpace=wrap;html=1;fillColor=#e1d5e7;strokeColor=#9673a6;" parent="1" vertex="1">
                    <mxGeometry x="460" y="230" width="90" height="50" as="geometry"/>
                </mxCell>
                <mxCell id="vllm-core" value="vLLM推理引擎" style="rounded=1;whiteSpace=wrap;html=1;fillColor=#fff2cc;strokeColor=#d6b656;fontSize=16;fontStyle=1;" parent="1" vertex="1">
                    <mxGeometry x="400" y="100" width="300" height="80" as="geometry"/>
                </mxCell>
                <mxCell id="paged-attention" value="PagedAttention&#10;内存管理" style="rounded=1;whiteSpace=wrap;html=1;fillColor=#f8cecc;strokeColor=#b85450;" parent="1" vertex="1">
                    <mxGeometry x="340" y="310" width="100" height="60" as="geometry"/>
                </mxCell>
                <mxCell id="dynamic-batch" value="动态批处理&#10;调度器" style="rounded=1;whiteSpace=wrap;html=1;fillColor=#f8cecc;strokeColor=#b85450;" parent="1" vertex="1">
                    <mxGeometry x="460" y="310" width="100" height="60" as="geometry"/>
                </mxCell>
                <mxCell id="multimodal-fusion" value="多模态融合&#10;模块" style="rounded=1;whiteSpace=wrap;html=1;fillColor=#f8cecc;strokeColor=#b85450;" parent="1" vertex="1">
                    <mxGeometry x="580" y="310" width="100" height="60" as="geometry"/>
                </mxCell>
                <mxCell id="kv-cache" value="KV-Cache&#10;优化" style="rounded=1;whiteSpace=wrap;html=1;fillColor=#d5e8d4;strokeColor=#82b366;" parent="1" vertex="1">
                    <mxGeometry x="350" y="420" width="80" height="50" as="geometry"/>
                </mxCell>
                <mxCell id="quantization" value="模型量化&#10;INT8/FP16" style="rounded=1;whiteSpace=wrap;html=1;fillColor=#d5e8d4;strokeColor=#82b366;" parent="1" vertex="1">
                    <mxGeometry x="470" y="420" width="80" height="50" as="geometry"/>
                </mxCell>
                <mxCell id="output-layer" value="结构化输出" style="rounded=1;whiteSpace=wrap;html=1;fillColor=#dae8fc;strokeColor=#6c8ebf;fontSize=14;fontStyle=1;" parent="1" vertex="1">
                    <mxGeometry x="810" y="110" width="200" height="60" as="geometry"/>
                </mxCell>
                <mxCell id="analysis-result" value="一致性分析" style="rounded=1;whiteSpace=wrap;html=1;fillColor=#e1d5e7;strokeColor=#9673a6;" parent="1" vertex="1">
                    <mxGeometry x="790" y="290" width="90" height="40" as="geometry"/>
                </mxCell>
                <mxCell id="anomaly-detection" value="异常检测" style="rounded=1;whiteSpace=wrap;html=1;fillColor=#e1d5e7;strokeColor=#9673a6;" parent="1" vertex="1">
                    <mxGeometry x="900" y="290" width="90" height="40" as="geometry"/>
                </mxCell>
                <mxCell id="confidence-score" value="置信度评分" style="rounded=1;whiteSpace=wrap;html=1;fillColor=#e1d5e7;strokeColor=#9673a6;" parent="1" vertex="1">
                    <mxGeometry x="790" y="350" width="90" height="40" as="geometry"/>
                </mxCell>
                <mxCell id="suggestions" value="智能建议" style="rounded=1;whiteSpace=wrap;html=1;fillColor=#e1d5e7;strokeColor=#9673a6;" parent="1" vertex="1">
                    <mxGeometry x="900" y="350" width="90" height="40" as="geometry"/>
                </mxCell>
                <mxCell id="arrow1" style="edgeStyle=orthogonalEdgeStyle;rounded=0;orthogonalLoop=1;jettySize=auto;html=1;entryX=0;entryY=0.5;entryDx=0;entryDy=0;" parent="1" source="input-layer" target="vllm-core" edge="1">
                    <mxGeometry relative="1" as="geometry"/>
                </mxCell>
                <mxCell id="arrow2" style="edgeStyle=orthogonalEdgeStyle;rounded=0;orthogonalLoop=1;jettySize=auto;html=1;entryX=0;entryY=0.5;entryDx=0;entryDy=0;" parent="1" source="vllm-core" target="output-layer" edge="1">
                    <mxGeometry relative="1" as="geometry"/>
                </mxCell>
                <mxCell id="arrow3" style="edgeStyle=orthogonalEdgeStyle;rounded=0;orthogonalLoop=1;jettySize=auto;html=1;entryX=0.5;entryY=0;entryDx=0;entryDy=0;" parent="1" source="image-input" target="paged-attention" edge="1">
                    <mxGeometry relative="1" as="geometry"/>
                </mxCell>
                <mxCell id="arrow4" style="edgeStyle=orthogonalEdgeStyle;rounded=0;orthogonalLoop=1;jettySize=auto;html=1;entryX=0.5;entryY=0;entryDx=0;entryDy=0;" parent="1" source="text-input" target="dynamic-batch" edge="1">
                    <mxGeometry relative="1" as="geometry"/>
                </mxCell>
                <mxCell id="title" value="vLLM多模态推理框架架构" style="text;html=1;strokeColor=none;fillColor=none;align=center;verticalAlign=middle;whiteSpace=wrap;rounded=0;fontSize=18;fontStyle=1;" parent="1" vertex="1">
                    <mxGeometry x="450" y="30" width="250" height="30" as="geometry"/>
                </mxCell>
                <mxCell id="tech-features" value="技术特点：&#10;• PagedAttention内存优化&#10;• 动态批处理调度&#10;• 多模态数据融合&#10;• INT8/FP16量化加速" style="rounded=1;whiteSpace=wrap;html=1;fillColor=#f5f5f5;strokeColor=#666666;align=left;" parent="1" vertex="1">
                    <mxGeometry x="70" y="380" width="200" height="100" as="geometry"/>
                </mxCell>
            </root>
        </mxGraphModel>
    </diagram>
</mxfile>